<svg width="1740" height="1078" fill="none" xmlns="http://www.w3.org/2000/svg">
    <g opacity=".1">
        <path d="M5.148 73.067h403.276l80.451 83.656h311.113v407.691M1295.73 5.295h439.12v110.129M1734.85 772.496v239.424l-58.52 60.26H802.048"
              stroke="#E2BE98" stroke-linejoin="round"/>
        <ellipse cx="5.148" cy="73.067" rx="5.148" ry="5.295" fill="#E2BE98"/>
        <ellipse cx="407.717" cy="73.067" rx="5.148" ry="5.295" fill="#E2BE98"/>
        <ellipse cx="490.082" cy="156.723" rx="5.148" ry="5.295" fill="#E2BE98"/>
        <ellipse cx="799.989" cy="156.723" rx="5.148" ry="5.295" fill="#E2BE98"/>
        <ellipse cx="799.989" cy="564.415" rx="5.148" ry="5.295" fill="#E2BE98"/>
        <ellipse cx="1301.4" cy="5.295" rx="5.148" ry="5.295" fill="#E2BE98"/>
        <ellipse cx="1734.85" cy="5.295" rx="5.148" ry="5.295" fill="#E2BE98"/>
        <ellipse cx="1734.85" cy="115.424" rx="5.148" ry="5.295" fill="#E2BE98"/>
        <ellipse cx="1734.85" cy="773.026" rx="5.148" ry="5.295" fill="#E2BE98"/>
        <ellipse cx="1734.85" cy="1011.29" rx="5.148" ry="5.295" fill="#E2BE98"/>
        <ellipse cx="1676.17" cy="1072.71" rx="5.148" ry="5.295" fill="#E2BE98"/>
        <ellipse cx="799.989" cy="1072.71" rx="5.148" ry="5.295" fill="#E2BE98"/>
    </g>
</svg>