<svg width="602" height="602" viewBox="0 0 602 602" fill="none" xmlns="http://www.w3.org/2000/svg" preserveAspectRatio="none">
<path d="M60.8504 1L1 52.9481V601H544.142L601 551.649V1H60.8504Z" fill="#F8F6F0" stroke="#D44A2A" stroke-width="2"/>
<mask id="path-2-inside-1_2001_2496" fill="white">
<path d="M9 497H106.565V592.749H9V497Z"/>
</mask>
<path d="M9 592.749H5V593.249H9V592.749ZM5 497V497.997H13V497H5ZM5 499.992V501.987H13V499.992H5ZM5 503.982V505.976H13V503.982H5ZM5 507.971V509.966H13V507.971H5ZM5 511.961V513.956H13V511.961H5ZM5 515.95V517.945H13V515.95H5ZM5 519.94V521.935H13V519.94H5ZM5 523.929V525.924H13V523.929H5ZM5 527.919V529.914H13V527.919H5ZM5 531.908V533.903H13V531.908H5ZM5 535.898V537.893H13V535.898H5ZM5 539.888V541.882H13V539.888H5ZM5 543.877V545.872H13V543.877H5ZM5 547.867V549.861H13V547.867H5ZM5 551.856V553.851H13V551.856H5ZM5 555.846V557.84H13V555.846H5ZM5 559.835V561.83H13V559.835H5ZM5 563.825V565.819H13V563.825H5ZM5 567.814V569.809H13V567.814H5ZM5 571.804V573.799H13V571.804H5ZM5 575.793V577.788H13V575.793H5ZM5 579.783V581.778H13V579.783H5ZM5 583.772V585.767H13V583.772H5ZM5 587.762V589.757H13V587.762H5ZM5 591.751V592.749H13V591.751H5ZM9 593.249H10.0163V592.249H9V593.249ZM12.0489 593.249H14.0815V592.249H12.0489V593.249ZM16.1141 593.249H18.1467V592.249H16.1141V593.249ZM20.1793 593.249H22.212V592.249H20.1793V593.249ZM24.2446 593.249H26.2772V592.249H24.2446V593.249ZM28.3098 593.249H30.3424V592.249H28.3098V593.249ZM32.375 593.249H34.4076V592.249H32.375V593.249ZM36.4402 593.249H38.4728V592.249H36.4402V593.249ZM40.5054 593.249H42.538V592.249H40.5054V593.249ZM44.5706 593.249H46.6033V592.249H44.5706V593.249ZM48.6359 593.249H50.6685V592.249H48.6359V593.249ZM52.7011 593.249H54.7337V592.249H52.7011V593.249ZM56.7663 593.249H58.7989V592.249H56.7663V593.249ZM60.8315 593.249H62.8641V592.249H60.8315V593.249ZM64.8967 593.249H66.9293V592.249H64.8967V593.249ZM68.9619 593.249H70.9946V592.249H68.9619V593.249ZM73.0272 593.249H75.0598V592.249H73.0272V593.249ZM77.0924 593.249H79.125V592.249H77.0924V593.249ZM81.1576 593.249H83.1902V592.249H81.1576V593.249ZM85.2228 593.249H87.2554V592.249H85.2228V593.249ZM89.288 593.249H91.3206V592.249H89.288V593.249ZM93.3532 593.249H95.3858V592.249H93.3532V593.249ZM97.4185 593.249H99.4511V592.249H97.4185V593.249ZM101.484 593.249H103.516V592.249H101.484V593.249ZM105.549 593.249H106.565V592.249H105.549V593.249ZM9 592.749H1V593.749H9V592.749ZM1 497V497.997H17V497H1ZM1 499.992V501.987H17V499.992H1ZM1 503.982V505.976H17V503.982H1ZM1 507.971V509.966H17V507.971H1ZM1 511.961V513.956H17V511.961H1ZM1 515.95V517.945H17V515.95H1ZM1 519.94V521.935H17V519.94H1ZM1 523.929V525.924H17V523.929H1ZM1 527.919V529.914H17V527.919H1ZM1 531.908V533.903H17V531.908H1ZM1 535.898V537.893H17V535.898H1ZM1 539.888V541.882H17V539.888H1ZM1 543.877V545.872H17V543.877H1ZM1 547.867V549.861H17V547.867H1ZM1 551.856V553.851H17V551.856H1ZM1 555.846V557.84H17V555.846H1ZM1 559.835V561.83H17V559.835H1ZM1 563.825V565.819H17V563.825H1ZM1 567.814V569.809H17V567.814H1ZM1 571.804V573.799H17V571.804H1ZM1 575.793V577.788H17V575.793H1ZM1 579.783V581.778H17V579.783H1ZM1 583.772V585.767H17V583.772H1ZM1 587.762V589.757H17V587.762H1ZM1 591.751V592.749H17V591.751H1ZM9 593.749H10.0163V591.749H9V593.749ZM12.0489 593.749H14.0815V591.749H12.0489V593.749ZM16.1141 593.749H18.1467V591.749H16.1141V593.749ZM20.1793 593.749H22.212V591.749H20.1793V593.749ZM24.2446 593.749H26.2772V591.749H24.2446V593.749ZM28.3098 593.749H30.3424V591.749H28.3098V593.749ZM32.375 593.749H34.4076V591.749H32.375V593.749ZM36.4402 593.749H38.4728V591.749H36.4402V593.749ZM40.5054 593.749H42.538V591.749H40.5054V593.749ZM44.5706 593.749H46.6033V591.749H44.5706V593.749ZM48.6359 593.749H50.6685V591.749H48.6359V593.749ZM52.7011 593.749H54.7337V591.749H52.7011V593.749ZM56.7663 593.749H58.7989V591.749H56.7663V593.749ZM60.8315 593.749H62.8641V591.749H60.8315V593.749ZM64.8967 593.749H66.9293V591.749H64.8967V593.749ZM68.9619 593.749H70.9946V591.749H68.9619V593.749ZM73.0272 593.749H75.0598V591.749H73.0272V593.749ZM77.0924 593.749H79.125V591.749H77.0924V593.749ZM81.1576 593.749H83.1902V591.749H81.1576V593.749ZM85.2228 593.749H87.2554V591.749H85.2228V593.749ZM89.288 593.749H91.3206V591.749H89.288V593.749ZM93.3532 593.749H95.3858V591.749H93.3532V593.749ZM97.4185 593.749H99.4511V591.749H97.4185V593.749ZM101.484 593.749H103.516V591.749H101.484V593.749ZM105.549 593.749H106.565V591.749H105.549V593.749Z" fill="#D44A2A" mask="url(#path-2-inside-1_2001_2496)"/>
<mask id="path-4-inside-2_2001_2496" fill="white">
<path d="M593 104.749L495.435 104.749L495.435 8.99994L593 8.99993L593 104.749Z"/>
</mask>
<path d="M593 8.99993L597 8.99993L597 8.49993L593 8.49993L593 8.99993ZM597 104.749L597 103.751L589 103.751L589 104.749L597 104.749ZM597 101.757L597 99.7619L589 99.7619L589 101.757L597 101.757ZM597 97.7671L597 95.7723L589 95.7723L589 97.7671L597 97.7671ZM597 93.7776L597 91.7828L589 91.7828L589 93.7776L597 93.7776ZM597 89.788L597 87.7933L589 87.7933L589 89.788L597 89.788ZM597 85.7985L597 83.8037L589 83.8037L589 85.7985L597 85.7985ZM597 81.8089L597 79.8142L589 79.8142L589 81.8089L597 81.8089ZM597 77.8194L597 75.8246L589 75.8246L589 77.8194L597 77.8194ZM597 73.8299L597 71.8351L589 71.8351L589 73.8299L597 73.8299ZM597 69.8403L597 67.8456L589 67.8456L589 69.8403L597 69.8403ZM597 65.8508L597 63.856L589 63.856L589 65.8508L597 65.8508ZM597 61.8613L597 59.8665L589 59.8665L589 61.8613L597 61.8613ZM597 57.8717L597 55.877L589 55.877L589 57.8717L597 57.8717ZM597 53.8822L597 51.8875L589 51.8875L589 53.8822L597 53.8822ZM597 49.8927L597 47.8979L589 47.8979L589 49.8927L597 49.8927ZM597 45.9031L597 43.9084L589 43.9084L589 45.9031L597 45.9031ZM597 41.9136L597 39.9188L589 39.9188L589 41.9136L597 41.9136ZM597 37.9241L597 35.9293L589 35.9293L589 37.9241L597 37.9241ZM597 33.9345L597 31.9398L589 31.9398L589 33.9345L597 33.9345ZM597 29.945L597 27.9502L589 27.9502L589 29.945L597 29.945ZM597 25.9555L597 23.9607L589 23.9607L589 25.9555L597 25.9555ZM597 21.9659L597 19.9712L589 19.9712L589 21.966L597 21.9659ZM597 17.9764L597 15.9817L589 15.9817L589 17.9764L597 17.9764ZM597 13.9869L597 11.9921L589 11.9921L589 13.9869L597 13.9869ZM597 9.99735L597 8.99993L589 8.99993L589 9.99735L597 9.99735ZM593 8.49993L591.984 8.49993L591.984 9.49993L593 9.49993L593 8.49993ZM589.951 8.49993L587.918 8.49993L587.918 9.49993L589.951 9.49993L589.951 8.49993ZM585.886 8.49993L583.853 8.49993L583.853 9.49993L585.886 9.49993L585.886 8.49993ZM581.821 8.49993L579.788 8.49993L579.788 9.49993L581.821 9.49993L581.821 8.49993ZM577.755 8.49993L575.723 8.49993L575.723 9.49993L577.755 9.49993L577.755 8.49993ZM573.69 8.49993L571.658 8.49993L571.658 9.49993L573.69 9.49993L573.69 8.49993ZM569.625 8.49993L567.592 8.49993L567.592 9.49993L569.625 9.49993L569.625 8.49993ZM565.56 8.49993L563.527 8.49993L563.527 9.49993L565.56 9.49993L565.56 8.49993ZM561.495 8.49993L559.462 8.49993L559.462 9.49993L561.495 9.49993L561.495 8.49993ZM557.429 8.49993L555.397 8.49993L555.397 9.49993L557.429 9.49993L557.429 8.49993ZM553.364 8.49993L551.332 8.49993L551.332 9.49993L553.364 9.49993L553.364 8.49993ZM549.299 8.49993L547.266 8.49994L547.266 9.49994L549.299 9.49993L549.299 8.49993ZM545.234 8.49994L543.201 8.49994L543.201 9.49994L545.234 9.49994L545.234 8.49994ZM541.168 8.49994L539.136 8.49994L539.136 9.49994L541.168 9.49994L541.168 8.49994ZM537.103 8.49994L535.071 8.49994L535.071 9.49994L537.103 9.49994L537.103 8.49994ZM533.038 8.49994L531.005 8.49994L531.005 9.49994L533.038 9.49994L533.038 8.49994ZM528.973 8.49994L526.94 8.49994L526.94 9.49994L528.973 9.49994L528.973 8.49994ZM524.908 8.49994L522.875 8.49994L522.875 9.49994L524.908 9.49994L524.908 8.49994ZM520.842 8.49994L518.81 8.49994L518.81 9.49994L520.842 9.49994L520.842 8.49994ZM516.777 8.49994L514.745 8.49994L514.745 9.49994L516.777 9.49994L516.777 8.49994ZM512.712 8.49994L510.679 8.49994L510.679 9.49994L512.712 9.49994L512.712 8.49994ZM508.647 8.49994L506.614 8.49994L506.614 9.49994L508.647 9.49994L508.647 8.49994ZM504.582 8.49994L502.549 8.49994L502.549 9.49994L504.582 9.49994L504.582 8.49994ZM500.516 8.49994L498.484 8.49994L498.484 9.49994L500.516 9.49994L500.516 8.49994ZM496.451 8.49994L495.435 8.49994L495.435 9.49994L496.451 9.49994L496.451 8.49994ZM593 8.99993L601 8.99993L601 7.99993L593 7.99993L593 8.99993ZM601 104.749L601 103.751L585 103.751L585 104.749L601 104.749ZM601 101.757L601 99.7619L585 99.7619L585 101.757L601 101.757ZM601 97.7671L601 95.7723L585 95.7723L585 97.7671L601 97.7671ZM601 93.7776L601 91.7828L585 91.7828L585 93.7776L601 93.7776ZM601 89.788L601 87.7933L585 87.7933L585 89.788L601 89.788ZM601 85.7985L601 83.8037L585 83.8037L585 85.7985L601 85.7985ZM601 81.8089L601 79.8142L585 79.8142L585 81.8089L601 81.8089ZM601 77.8194L601 75.8246L585 75.8246L585 77.8194L601 77.8194ZM601 73.8299L601 71.8351L585 71.8351L585 73.8299L601 73.8299ZM601 69.8403L601 67.8456L585 67.8456L585 69.8403L601 69.8403ZM601 65.8508L601 63.856L585 63.856L585 65.8508L601 65.8508ZM601 61.8613L601 59.8665L585 59.8665L585 61.8613L601 61.8613ZM601 57.8717L601 55.877L585 55.877L585 57.8717L601 57.8717ZM601 53.8822L601 51.8875L585 51.8875L585 53.8822L601 53.8822ZM601 49.8927L601 47.8979L585 47.8979L585 49.8927L601 49.8927ZM601 45.9031L601 43.9084L585 43.9084L585 45.9031L601 45.9031ZM601 41.9136L601 39.9188L585 39.9188L585 41.9136L601 41.9136ZM601 37.9241L601 35.9293L585 35.9293L585 37.9241L601 37.9241ZM601 33.9345L601 31.9398L585 31.9398L585 33.9345L601 33.9345ZM601 29.945L601 27.9502L585 27.9502L585 29.945L601 29.945ZM601 25.9555L601 23.9607L585 23.9607L585 25.9555L601 25.9555ZM601 21.9659L601 19.9712L585 19.9712L585 21.966L601 21.9659ZM601 17.9764L601 15.9817L585 15.9817L585 17.9764L601 17.9764ZM601 13.9869L601 11.9921L585 11.9921L585 13.9869L601 13.9869ZM601 9.99735L601 8.99993L585 8.99993L585 9.99735L601 9.99735ZM593 7.99993L591.984 7.99993L591.984 9.99993L593 9.99993L593 7.99993ZM589.951 7.99993L587.918 7.99993L587.918 9.99993L589.951 9.99993L589.951 7.99993ZM585.886 7.99993L583.853 7.99993L583.853 9.99993L585.886 9.99993L585.886 7.99993ZM581.821 7.99993L579.788 7.99993L579.788 9.99993L581.821 9.99993L581.821 7.99993ZM577.755 7.99993L575.723 7.99993L575.723 9.99993L577.755 9.99993L577.755 7.99993ZM573.69 7.99993L571.658 7.99993L571.658 9.99993L573.69 9.99993L573.69 7.99993ZM569.625 7.99993L567.592 7.99993L567.592 9.99993L569.625 9.99993L569.625 7.99993ZM565.56 7.99993L563.527 7.99993L563.527 9.99993L565.56 9.99993L565.56 7.99993ZM561.495 7.99993L559.462 7.99993L559.462 9.99993L561.495 9.99993L561.495 7.99993ZM557.429 7.99993L555.397 7.99993L555.397 9.99993L557.429 9.99993L557.429 7.99993ZM553.364 7.99993L551.332 7.99993L551.332 9.99993L553.364 9.99993L553.364 7.99993ZM549.299 7.99993L547.266 7.99994L547.266 9.99994L549.299 9.99993L549.299 7.99993ZM545.234 7.99994L543.201 7.99994L543.201 9.99994L545.234 9.99994L545.234 7.99994ZM541.168 7.99994L539.136 7.99994L539.136 9.99994L541.168 9.99994L541.168 7.99994ZM537.103 7.99994L535.071 7.99994L535.071 9.99994L537.103 9.99994L537.103 7.99994ZM533.038 7.99994L531.005 7.99994L531.005 9.99994L533.038 9.99994L533.038 7.99994ZM528.973 7.99994L526.94 7.99994L526.94 9.99994L528.973 9.99994L528.973 7.99994ZM524.908 7.99994L522.875 7.99994L522.875 9.99994L524.908 9.99994L524.908 7.99994ZM520.842 7.99994L518.81 7.99994L518.81 9.99994L520.842 9.99994L520.842 7.99994ZM516.777 7.99994L514.745 7.99994L514.745 9.99994L516.777 9.99994L516.777 7.99994ZM512.712 7.99994L510.679 7.99994L510.679 9.99994L512.712 9.99994L512.712 7.99994ZM508.647 7.99994L506.614 7.99994L506.614 9.99994L508.647 9.99994L508.647 7.99994ZM504.582 7.99994L502.549 7.99994L502.549 9.99994L504.582 9.99994L504.582 7.99994ZM500.516 7.99994L498.484 7.99994L498.484 9.99994L500.516 9.99994L500.516 7.99994ZM496.451 7.99994L495.435 7.99994L495.435 9.99994L496.451 9.99994L496.451 7.99994Z" fill="#D44A2A" mask="url(#path-4-inside-2_2001_2496)"/>
</svg>
