<svg viewBox="0 0 23 25" fill="none" xmlns="http://www.w3.org/2000/svg">
<path d="M11.731 0.774414C5.66559 0.774414 0.730957 6.03338 0.730957 12.4974C0.730957 17.5353 3.7285 21.8403 7.92227 23.4951C7.80148 22.3475 7.82043 20.468 8.01974 19.558C8.20639 18.7032 9.22555 14.1108 9.22555 14.1108C9.22555 14.1108 8.91788 13.4542 8.91788 12.4843C8.91788 10.9603 9.74643 9.82312 10.7782 9.82312C11.6558 9.82312 12.079 10.5253 12.079 11.3666C12.079 12.3073 11.5178 13.7125 11.2271 15.0149C10.9847 16.1061 11.7404 16.9959 12.7497 16.9959C14.5773 16.9959 15.982 14.942 15.982 11.9777C15.982 9.35403 14.2134 7.51933 11.6875 7.51933C8.76206 7.51933 7.04485 9.8581 7.04485 12.2753C7.04485 13.2169 7.38498 14.2267 7.81012 14.7764C7.89395 14.8851 7.90622 14.9799 7.88131 15.0903C7.8034 15.4364 7.63018 16.1807 7.59577 16.3333C7.55108 16.5343 7.44666 16.5761 7.25207 16.4795C5.96757 15.8423 5.1647 13.8415 5.1647 12.234C5.1647 8.77745 7.52101 5.60244 11.9591 5.60244C15.5264 5.60244 18.2984 8.31087 18.2984 11.9318C18.2984 15.7086 16.0635 18.7479 12.9625 18.7479C11.9204 18.7479 10.9412 18.1709 10.6062 17.4894C10.6062 17.4894 10.0905 19.5816 9.96512 20.0946C9.74873 20.9816 8.82242 22.8194 8.35741 23.6541C9.42118 24.0203 10.5543 24.2204 11.731 24.2204C17.7966 24.2204 22.731 18.9617 22.731 12.4974C22.731 6.03339 17.7966 0.774414 11.731 0.774414Z" fill="#170903"/>
</svg>
