<svg viewBox="0 0 24 21" fill="none" xmlns="http://www.w3.org/2000/svg">
<path d="M17.1701 3.38281H2.08105V19.6863H6.28076V14.3822H14.3282L18 19.6863H22.7026L18.6538 14.3578C19.9113 14.1623 20.8165 13.6978 21.3698 12.9646C21.923 12.2313 22.1997 11.058 22.1997 9.49369V8.27151C22.1997 7.34264 22.0992 6.60939 21.9231 6.04721C21.747 5.48503 21.4452 4.9961 21.0177 4.55615C20.565 4.14062 20.0622 3.84732 19.4586 3.65183C18.855 3.48077 18.1005 3.38281 17.1701 3.38281ZM16.4911 10.7893H6.28076V6.97594H16.4911C17.0694 6.97594 17.4718 7.07362 17.673 7.24482C17.8742 7.41589 18 7.73361 18 8.19812V9.56694C18 10.0557 17.8742 10.3734 17.673 10.5445C17.4718 10.7156 17.0695 10.789 16.4911 10.789V10.7893Z" stroke="#170903" stroke-width="2.5" stroke-linecap="round" stroke-linejoin="round"/>
<path d="M21.9914 3.37427C22.8353 3.37427 23.5198 2.68889 23.5198 1.84338C23.5198 0.997876 22.8353 0.3125 21.9914 0.3125C21.147 0.3125 20.4624 0.997876 20.4624 1.84338C20.4624 2.68889 21.147 3.37427 21.9914 3.37427Z" fill="#170903"/>
</svg>
