<svg viewBox="0 0 25 21" fill="none" xmlns="http://www.w3.org/2000/svg">
<path fill-rule="evenodd" clip-rule="evenodd" d="M21.6902 0.200028C21.9775 0.0791191 22.2919 0.0374182 22.6008 0.0792658C22.9097 0.121113 23.2017 0.24498 23.4464 0.437973C23.6912 0.630966 23.8797 0.886029 23.9924 1.17662C24.1051 1.4672 24.1379 1.78269 24.0873 2.09024L21.4508 18.0826C21.195 19.6252 19.5024 20.5099 18.0876 19.7415C16.9042 19.0986 15.1465 18.1082 13.5655 17.0747C12.775 16.5574 10.3535 14.9009 10.6511 13.7221C10.9069 12.7142 14.9756 8.92684 17.3006 6.67509C18.2132 5.79044 17.797 5.28011 16.7194 6.09385C14.0433 8.11426 9.74671 11.1867 8.32614 12.0516C7.07296 12.8142 6.41964 12.9444 5.63844 12.8142C4.21321 12.5771 2.89145 12.2097 1.81265 11.7621C0.354875 11.1577 0.425788 9.15352 1.81149 8.56995L21.6902 0.200028Z" fill="#170903"/>
</svg>
