<svg viewBox="0 0 26 16" fill="none" xmlns="http://www.w3.org/2000/svg">
<path d="M24.5858 15.9978H21.8266C20.7831 15.9978 20.4687 15.1341 18.5982 13.2212C16.9635 11.611 16.2731 11.4109 15.8596 11.4109C15.2876 11.4109 15.1317 11.5715 15.1317 12.376V14.9116C15.1317 15.5975 14.914 15.9991 13.1608 15.9991C11.4599 15.8823 9.81048 15.3542 8.34841 14.4583C6.88635 13.5624 5.65346 12.3244 4.7513 10.8461C2.60919 8.12141 1.11872 4.92344 0.398438 1.50658C0.398437 1.08397 0.555624 0.700895 1.34398 0.700895H4.10079C4.80933 0.700895 5.06446 1.02342 5.34256 1.76856C6.68106 5.79452 8.96511 9.29655 9.89251 9.29655C10.248 9.29655 10.4028 9.1359 10.4028 8.23012V4.08305C10.2855 2.19117 9.30245 2.03176 9.30245 1.34718C9.31489 1.16656 9.39573 0.998022 9.5278 0.877347C9.65988 0.756673 9.83278 0.693374 10.0098 0.700895H14.3433C14.9358 0.700895 15.1317 1.00241 15.1317 1.72654V7.32434C15.1317 7.92861 15.3856 8.12879 15.5645 8.12879C15.92 8.12879 16.1933 7.92861 16.845 7.26379C18.242 5.52265 19.3833 3.5828 20.233 1.50535C20.3199 1.25592 20.4844 1.04242 20.7011 0.897396C20.9179 0.752375 21.1752 0.6838 21.4336 0.702131H24.1916C25.0187 0.702131 25.194 1.12475 25.0187 1.72778C24.0156 4.02425 22.7744 6.20417 21.3163 8.23012C21.0189 8.69352 20.9004 8.93448 21.3163 9.4782C21.5896 9.90081 22.5569 10.7263 23.2062 11.511C24.1517 12.4748 24.9365 13.5894 25.5302 14.8103C25.7671 15.5962 25.373 15.9978 24.5858 15.9978Z" fill="#170903"/>
</svg>
