<svg viewBox="0 0 22 22" fill="none" xmlns="http://www.w3.org/2000/svg">
<path d="M10.9741 0.53418C16.7457 0.53418 21.4242 5.21937 21.4242 10.9992C21.4242 16.779 16.7457 21.4642 10.9741 21.4642C9.1273 21.4674 7.31297 20.9779 5.71767 20.0462L0.528122 21.4642L1.94098 16.2652C1.00983 14.6671 0.520705 12.8494 0.523942 10.9992C0.523942 5.21937 5.20248 0.53418 10.9741 0.53418ZM7.41268 6.08064L7.20368 6.08901C7.06855 6.09833 6.93652 6.13387 6.81493 6.19366C6.70163 6.25803 6.59816 6.33839 6.5077 6.43226C6.3823 6.55052 6.31124 6.65307 6.23495 6.75249C5.84842 7.25576 5.64031 7.87362 5.64347 8.50852C5.64556 9.0213 5.77932 9.52049 5.98833 9.98723C6.41574 10.9312 7.11903 11.9306 8.04701 12.8567C8.27064 13.0796 8.49009 13.3036 8.72627 13.5118C9.87937 14.5284 11.2534 15.2616 12.7391 15.653L13.3327 15.744C13.526 15.7545 13.7194 15.7398 13.9137 15.7304C14.218 15.7144 14.5151 15.6318 14.7842 15.4887C14.921 15.4179 15.0545 15.3411 15.1845 15.2585C15.1845 15.2585 15.2287 15.2285 15.3151 15.1643C15.4562 15.0596 15.5429 14.9853 15.6599 14.8629C15.7477 14.7722 15.8209 14.6668 15.8794 14.5468C15.9609 14.3763 16.0424 14.0508 16.0759 13.7797C16.1009 13.5725 16.0936 13.4595 16.0905 13.3894C16.0863 13.2774 15.9933 13.1613 15.8919 13.1121L15.2837 12.8389C15.2837 12.8389 14.3746 12.4423 13.8186 12.1891C13.7604 12.1637 13.6981 12.1492 13.6347 12.1462C13.5632 12.1387 13.4909 12.1467 13.4228 12.1696C13.3546 12.1925 13.2922 12.2299 13.2397 12.2791C13.2345 12.277 13.1644 12.3366 12.4089 13.2534C12.3655 13.3117 12.3058 13.3558 12.2373 13.38C12.1688 13.4043 12.0947 13.4075 12.0243 13.3894C11.9562 13.3712 11.8895 13.3481 11.8247 13.3203C11.6952 13.2659 11.6502 13.245 11.5614 13.2073C10.9614 12.9456 10.4061 12.5914 9.91549 12.1577C9.78382 12.0426 9.66156 11.917 9.53615 11.7956C9.12506 11.4013 8.76676 10.9552 8.47024 10.4686L8.40858 10.3692C8.36497 10.302 8.3292 10.23 8.30199 10.1547C8.26228 10.0008 8.36574 9.87734 8.36574 9.87734C8.36574 9.87734 8.61968 9.59897 8.73776 9.44828C8.85271 9.30177 8.9499 9.15944 9.0126 9.05793C9.13591 8.8591 9.17458 8.65503 9.10979 8.49701C8.81718 7.7812 8.51483 7.06923 8.20271 6.3611C8.14106 6.22087 7.95818 6.1204 7.79202 6.10052C7.73559 6.09354 7.67916 6.08796 7.62273 6.08378C7.48242 6.07572 7.34172 6.07711 7.20159 6.08796L7.41268 6.08064Z" fill="#170903"/>
</svg>
