<svg viewBox="0 0 26 18" fill="none" xmlns="http://www.w3.org/2000/svg">
<path d="M10.9069 12.767L17.4245 8.9996L10.9069 5.23219V12.767ZM25.4241 2.93408C25.5873 3.5243 25.7004 4.31546 25.7757 5.3201C25.8636 6.32474 25.9013 7.19125 25.9013 7.94473L25.9766 8.9996C25.9766 11.7498 25.7757 13.7717 25.4241 15.0651C25.1101 16.1953 24.3817 16.9237 23.2515 17.2377C22.6613 17.4009 21.5813 17.5139 19.9236 17.5893C18.291 17.6772 16.7966 17.7149 15.4152 17.7149L13.4185 17.7902C8.15663 17.7902 4.87896 17.5893 3.58547 17.2377C2.45524 16.9237 1.72686 16.1953 1.41291 15.0651C1.24965 14.4749 1.13663 13.6837 1.06128 12.6791C0.973375 11.6745 0.9357 10.808 0.9357 10.0545L0.860352 8.9996C0.860352 6.24939 1.06128 4.22755 1.41291 2.93408C1.72686 1.80385 2.45524 1.07549 3.58547 0.761537C4.1757 0.598283 5.2557 0.485261 6.91337 0.409913C8.54593 0.322006 10.0404 0.284332 11.4217 0.284332L13.4185 0.208984C18.6804 0.208984 21.958 0.409913 23.2515 0.761537C24.3817 1.07549 25.1101 1.80385 25.4241 2.93408Z" fill="#170903"/>
</svg>
