<?xml version="1.0" standalone="no"?>
<!DOCTYPE svg PUBLIC "-//W3C//DTD SVG 20010904//EN"
 "http://www.w3.org/TR/2001/REC-SVG-20010904/DTD/svg10.dtd">
<svg version="1.0" xmlns="http://www.w3.org/2000/svg"
 width="856.000000pt" height="856.000000pt" viewBox="0 0 856.000000 856.000000"
 preserveAspectRatio="xMidYMid meet">
<metadata>
Created by potrace 1.14, written by Peter Selinger 2001-2017
</metadata>
<g transform="translate(0.000000,856.000000) scale(0.100000,-0.100000)"
fill="#000000" stroke="none">
<path d="M4250 7413 c-33 -73 -36 -80 -86 -203 -47 -119 -53 -133 -98 -236
-14 -34 -26 -66 -26 -71 0 -6 -6 -23 -14 -39 -17 -34 -38 -85 -41 -99 -2 -6
-12 -31 -23 -55 -11 -25 -39 -92 -62 -150 -23 -58 -48 -118 -55 -135 -7 -16
-19 -45 -26 -62 -12 -28 -19 -33 -49 -34 -19 0 -44 -2 -55 -5 -43 -8 -194 -15
-640 -29 -233 -8 -400 -16 -449 -24 -6 0 -1 -9 10 -19 26 -24 258 -218 313
-262 24 -19 51 -43 60 -52 8 -10 19 -18 24 -18 4 0 18 -10 30 -23 12 -13 58
-52 102 -87 44 -36 90 -74 102 -85 12 -11 36 -31 54 -45 44 -35 112 -95 185
-163 l63 -58 -15 -47 c-8 -26 -16 -54 -18 -62 -4 -16 -156 -540 -213 -735 -19
-66 -36 -124 -37 -130 -2 -5 -8 -30 -15 -55 -7 -25 -13 -47 -13 -50 0 -3 -4
-13 -9 -22 -16 -30 11 -21 81 25 89 58 399 251 430 267 14 7 27 16 30 20 3 4
25 18 50 32 25 14 93 55 153 92 59 36 111 66 116 66 5 0 11 4 13 8 6 16 189
114 201 108 7 -4 31 -19 54 -34 23 -15 71 -45 107 -67 36 -21 66 -43 66 -47 0
-4 4 -8 9 -8 8 0 102 -58 126 -77 6 -5 28 -20 50 -33 22 -13 42 -28 43 -32 2
-4 8 -8 14 -8 6 0 27 -13 47 -29 20 -15 41 -30 46 -32 18 -7 160 -104 163
-111 2 -5 8 -8 13 -8 6 0 36 -17 67 -38 31 -21 84 -56 116 -76 l59 -38 -7 34
c-4 18 -9 41 -12 51 -2 9 -6 25 -8 35 -2 9 -14 55 -26 102 -12 47 -23 92 -25
100 -6 27 -23 94 -39 152 -8 31 -17 67 -20 80 -3 12 -23 95 -45 183 -23 88
-44 173 -46 189 -3 16 -8 32 -10 36 -2 4 -7 20 -9 36 -3 16 -8 40 -11 54 -3
14 -12 56 -19 93 l-13 68 56 45 c31 24 67 53 79 64 13 11 26 20 30 20 3 0 12
7 21 15 9 9 63 52 121 96 58 44 112 85 120 92 8 7 33 26 55 42 22 17 49 37 60
47 11 9 76 60 145 114 141 111 217 180 208 189 -3 3 -30 8 -59 10 -30 2 -92 7
-139 10 -47 4 -107 8 -135 10 -27 2 -95 7 -150 10 -55 4 -120 8 -145 10 -25 1
-90 6 -145 9 -55 4 -118 9 -140 11 -22 3 -80 8 -130 11 -49 3 -101 8 -115 9
-14 2 -35 4 -46 4 -14 1 -24 9 -27 24 -3 12 -38 108 -77 212 -40 105 -73 195
-74 200 -2 6 -7 21 -13 35 -6 14 -30 77 -53 140 -23 63 -48 131 -55 150 -8 19
-27 71 -43 115 -16 44 -33 89 -37 100 -5 11 -9 22 -10 25 -1 3 -7 18 -13 33
-7 16 -12 32 -12 37 0 5 -4 11 -9 14 -5 4 -19 -15 -31 -41z"/>
<path d="M5928 5583 c-21 -5 -80 -188 -93 -288 -3 -22 -7 -51 -10 -65 -20 -92
-24 -370 -8 -491 16 -114 34 -159 65 -160 13 -1 41 -2 63 -4 22 -2 87 -6 145
-9 58 -3 123 -8 145 -10 22 -3 67 -8 100 -11 33 -4 75 -9 94 -11 19 -2 48 -5
65 -8 17 -3 67 -10 111 -16 89 -12 85 -11 245 -39 63 -11 130 -23 147 -26 201
-34 336 -86 396 -151 42 -45 94 -173 102 -249 1 -11 15 -97 21 -130 34 -180
49 -602 30 -820 -4 -49 -9 -103 -11 -120 -6 -73 -16 -161 -20 -175 -2 -8 -7
-35 -10 -60 -30 -224 -74 -310 -181 -360 -44 -20 -164 -55 -224 -65 -19 -3
-71 -12 -115 -20 -89 -16 -145 -25 -190 -30 -16 -2 -39 -6 -50 -8 -22 -5 -104
-17 -150 -22 -16 -2 -59 -8 -95 -14 -36 -5 -83 -12 -105 -15 -104 -14 -204
-26 -247 -31 -27 -3 -69 -8 -95 -11 -73 -9 -102 -12 -178 -19 -38 -3 -81 -8
-95 -10 -29 -4 -119 -13 -325 -30 -44 -3 -102 -8 -128 -10 -47 -5 -179 -14
-287 -20 -567 -35 -1925 -17 -2300 30 -19 2 -60 7 -90 10 -99 10 -144 15 -180
20 -37 6 -92 13 -150 20 -19 3 -45 6 -57 9 -12 3 -47 7 -78 11 -31 3 -78 10
-103 14 -26 5 -54 9 -62 10 -8 0 -28 3 -45 6 -16 3 -41 8 -55 10 -14 1 -25 4
-25 5 0 0 -18 3 -41 5 -109 12 -571 111 -592 127 -6 6 -12 8 -12 5 0 -12 -77
27 -117 59 -38 31 -89 115 -98 161 -2 10 -4 20 -5 23 -3 6 -4 11 -14 75 -5 28
-10 59 -12 70 -27 137 -26 1078 1 1230 19 107 30 147 56 200 36 75 54 96 115
135 68 43 289 104 453 126 18 2 37 6 41 9 4 2 29 7 56 10 27 3 60 7 74 11 14
3 43 7 65 9 22 2 51 6 65 9 29 6 82 13 159 22 30 3 62 7 72 9 10 2 49 7 86 10
37 4 75 9 84 10 8 2 55 6 105 10 49 4 97 9 106 11 10 1 62 6 115 9 54 4 101
10 105 13 18 19 27 317 13 467 -11 124 -24 242 -31 280 -5 35 -15 92 -20 119
-8 47 -26 84 -42 88 -9 3 -71 3 -137 0 -66 -2 -139 -5 -162 -6 -24 0 -43 -3
-43 -6 0 -3 -21 -5 -48 -6 -42 0 -128 -7 -232 -19 -19 -2 -62 -7 -95 -10 -33
-4 -71 -8 -85 -10 -14 -2 -52 -6 -84 -9 -33 -3 -71 -8 -85 -11 -14 -2 -46 -7
-71 -10 -25 -3 -52 -7 -60 -10 -8 -2 -37 -6 -63 -10 -27 -3 -95 -15 -150 -26
-56 -12 -113 -23 -127 -25 -143 -26 -357 -93 -480 -152 -268 -126 -501 -373
-604 -638 -15 -38 -31 -78 -36 -89 -9 -21 -33 -93 -36 -110 -1 -5 -7 -30 -14
-55 -28 -104 -44 -205 -58 -375 -15 -188 -6 -1193 12 -1308 3 -17 7 -50 10
-72 3 -22 7 -47 10 -55 2 -8 7 -39 11 -69 3 -29 7 -57 10 -61 2 -3 6 -17 8
-31 9 -45 39 -164 46 -174 3 -5 6 -12 6 -15 5 -40 84 -212 134 -290 63 -100
147 -193 236 -262 17 -12 31 -26 33 -30 2 -5 10 -8 17 -8 8 0 20 -6 27 -13 18
-18 196 -105 228 -111 3 -1 11 -5 18 -9 15 -10 138 -45 202 -57 25 -5 56 -12
70 -15 14 -3 39 -8 55 -10 17 -2 41 -6 55 -9 22 -4 122 -20 200 -31 14 -2 39
-6 55 -9 76 -12 174 -26 210 -30 22 -3 49 -7 60 -9 11 -3 49 -8 85 -12 73 -7
91 -10 170 -20 30 -4 66 -9 80 -10 86 -9 150 -16 180 -20 19 -3 58 -7 85 -10
28 -3 64 -7 80 -9 17 -2 68 -7 114 -11 47 -4 94 -9 105 -11 12 -2 55 -6 96 -9
41 -3 91 -7 110 -9 84 -11 298 -24 515 -33 219 -8 1699 -9 1913 0 216 9 382
20 492 32 19 2 64 7 100 10 139 13 167 15 210 20 25 3 70 8 100 11 30 3 66 7
80 9 44 5 154 17 190 21 43 5 78 9 150 19 30 4 66 9 80 10 33 3 130 16 155 21
11 2 43 6 70 9 28 3 57 8 65 10 14 4 85 14 150 21 14 1 26 3 28 4 3 3 11 5 65
14 27 4 57 9 67 11 9 2 33 6 51 9 34 5 159 32 192 41 9 3 25 7 35 9 83 21 292
110 300 129 2 4 8 7 13 7 8 0 116 67 129 80 3 3 26 22 52 43 70 56 107 94 172
172 72 88 64 76 112 170 62 119 119 292 138 419 4 21 8 41 10 45 2 3 7 29 10
56 3 28 8 59 10 70 2 11 7 58 11 105 5 47 10 101 11 120 2 19 6 98 8 175 3 77
6 142 6 145 6 20 3 110 -3 110 -5 0 -5 5 -1 11 4 7 7 30 6 53 -2 117 -20 571
-22 571 -1 0 -3 34 -6 75 -2 41 -7 86 -9 100 -5 25 -17 143 -19 188 -1 12 -4
22 -8 22 -4 0 -6 8 -6 18 1 17 -7 59 -16 90 -3 9 -8 31 -11 47 -10 52 -31 118
-46 150 -6 12 -11 27 -13 35 -4 20 -16 49 -61 145 -103 221 -265 383 -485 487
-81 38 -173 75 -205 83 -11 2 -51 13 -90 23 -64 17 -157 39 -195 46 -8 2 -26
5 -40 9 -27 6 -127 24 -173 31 -15 3 -35 7 -45 10 -9 2 -39 8 -67 11 -49 7
-71 11 -117 19 -13 2 -48 7 -78 11 -30 4 -58 9 -62 11 -4 2 -33 7 -65 10 -32
3 -71 7 -88 11 -16 3 -41 6 -55 8 -14 2 -47 6 -75 9 -27 4 -68 9 -90 11 -22 2
-65 7 -95 11 -30 3 -75 7 -100 9 -126 9 -225 17 -230 19 -3 1 -13 1 -22 -1z"/>
</g>
</svg>
