<svg viewBox="0 0 80 61" fill="none" xmlns="http://www.w3.org/2000/svg">
<path d="M39.917 0.348932C39.8111 0.578087 38.8404 2.99302 37.7461 5.70763L35.7517 10.6433L34.6928 10.7667C34.128 10.8372 31.6041 10.9429 29.1156 11.0134C26.6094 11.0663 24.5621 11.1721 24.5797 11.2426C24.5797 11.2955 26.5917 13.0053 29.0626 15.0501C31.5335 17.0772 33.5279 18.84 33.4926 18.9457C33.4573 19.0515 32.769 21.3783 31.9924 24.1458C31.1982 26.8956 30.5099 29.2577 30.4746 29.3987C30.404 29.5926 30.4569 29.5926 30.7746 29.3811C33.775 27.4421 40.3229 23.423 40.4641 23.423C40.57 23.423 42.7056 24.8156 45.2294 26.5078C47.7356 28.2 49.8006 29.5397 49.8006 29.4868C49.8006 29.434 49.1476 26.8427 48.371 23.7403C47.5062 20.3912 46.9944 18.0467 47.1003 17.9762C47.1885 17.9233 49.2005 16.3545 51.5656 14.5213C55.3602 11.5599 55.8014 11.1721 55.3425 11.1368C55.0601 11.1016 52.4127 10.9253 49.4476 10.7314C46.5002 10.5199 44.0469 10.326 44.0116 10.2907C43.9763 10.2555 43.1115 7.94629 42.1055 5.16118C41.0818 2.35844 40.217 0.0492687 40.1817 0.0140133C40.1464 -0.038868 40.0229 0.119778 39.917 0.348932Z" fill="white"/>
<path d="M55.1366 18.9455C54.5894 20.7083 54.3423 23.5462 54.5718 25.4324C54.6777 26.3842 54.8365 27.0541 54.9777 27.1422C55.1189 27.2303 55.7013 27.3009 56.2838 27.3009C58.3664 27.3009 64.0318 28.0765 66.8204 28.7287C69.3796 29.328 69.9444 29.945 70.4209 32.589C71.1269 36.6609 71.1092 40.9091 70.3856 45.0868C69.8914 47.9248 69.4855 48.1892 64.6672 48.9648C58.5076 49.9519 52.6833 50.5865 46.4531 50.939C41.6701 51.2035 30.251 51.0624 26.3681 50.6746C20.032 50.0401 12.6899 48.7709 11.1897 48.0482C9.5836 47.2726 9.21296 45.4922 9.19531 38.8467C9.17766 32.1307 9.56595 30.4561 11.3838 29.5571C12.7781 28.8521 18.9907 27.8297 24.5502 27.389L25.9798 27.2656L26.1034 25.9436C26.2975 23.9869 25.7327 18.6987 25.2915 18.2404C25.0797 17.9936 18.4789 18.5577 14.9137 19.1218C8.94822 20.056 6.26552 21.0784 4.05935 23.3171C2.5768 24.8154 1.80023 26.0669 1.11191 28.0765C0.211792 30.6677 0 32.6067 0 38.2298C0 41.1206 0.0882467 44.1173 0.211792 45.2807C0.970714 52.1024 3.33573 55.5045 8.40109 57.0733C10.7838 57.7961 20.085 59.0476 27.7801 59.6822C33.1808 60.1229 47.6885 60.1229 52.8421 59.6822C60.1137 59.0652 68.0735 57.9723 70.6856 57.2496C74.0567 56.3154 76.9159 54.0415 78.2396 51.2563C79.5633 48.4889 80.1457 43.9586 79.9692 37.7891C79.775 30.9497 79.3515 28.4466 77.9042 25.3971C76.6864 22.8412 74.692 21.2194 71.4799 20.1794C69.1148 19.4038 61.2432 18.117 57.3074 17.8526L55.5248 17.7292L55.1366 18.9455Z" fill="white"/>
</svg>
