<svg viewBox="0 0 214 159" fill="none" xmlns="http://www.w3.org/2000/svg">
<path d="M106.297 0.913147C106.015 1.51942 103.431 7.90865 100.517 15.0907L95.2057 28.1489L92.3858 28.4754C90.8818 28.6619 84.161 28.9418 77.5341 29.1283C70.8603 29.2682 65.4084 29.548 65.4554 29.7346C65.4554 29.8745 70.8133 34.3982 77.3931 39.8081C83.973 45.1713 89.2838 49.835 89.1898 50.1148C89.0958 50.3946 87.2629 56.5506 85.1949 63.8726C83.08 71.1479 81.247 77.3972 81.153 77.7703C80.965 78.2833 81.106 78.2833 81.952 77.7237C89.9418 72.5936 107.378 61.9605 107.754 61.9605C108.036 61.9605 113.723 65.6448 120.444 70.1219C127.118 74.599 132.617 78.1434 132.617 78.0035C132.617 77.8636 130.878 71.008 128.81 62.7999C126.507 53.939 125.144 47.7363 125.426 47.5498C125.661 47.4099 131.019 43.2592 137.317 38.409C147.422 30.574 148.596 29.548 147.375 29.4548C146.623 29.3615 139.573 28.8951 131.677 28.3821C123.828 27.8225 117.295 27.3095 117.201 27.2162C117.107 27.1229 114.804 21.0135 112.125 13.645C109.399 6.22972 107.096 0.120331 107.002 0.0270538C106.908 -0.112854 106.579 0.306877 106.297 0.913147Z" fill="#D44A2A"/>
<path d="M146.825 50.1149C145.368 54.7786 144.71 62.2871 145.321 67.2772C145.603 69.7956 146.026 71.5678 146.402 71.801C146.778 72.0341 148.329 72.2207 149.88 72.2207C155.425 72.2207 170.512 74.2727 177.938 75.9983C184.753 77.5839 186.257 79.2162 187.526 86.2117C189.406 96.9847 189.359 108.224 187.432 119.277C186.116 126.786 185.035 127.485 172.204 129.537C155.801 132.149 140.292 133.828 123.701 134.76C110.964 135.46 80.5562 135.087 70.2164 134.061C53.3438 132.382 33.7922 129.024 29.7973 127.112C25.5204 125.06 24.5334 120.35 24.4864 102.768C24.4394 84.9991 25.4734 80.5686 30.3143 78.1902C34.0272 76.3247 50.5708 73.6198 65.3755 72.4539L69.1824 72.1274L69.5114 68.6297C70.0284 63.453 68.5244 49.462 67.3495 48.2495C66.7855 47.5965 49.2079 49.0889 39.7141 50.5813C23.8285 53.053 16.6846 55.7579 10.8098 61.6808C6.86184 65.6449 4.79389 68.9561 2.96093 74.2727C0.563987 81.1283 0 86.2583 0 101.135C0 108.784 0.234995 116.712 0.563987 119.79C2.58494 137.838 8.8828 146.839 22.3715 150.99C28.7163 152.902 53.4848 156.213 73.9763 157.892C88.358 159.058 126.991 159.058 140.715 157.892C160.078 156.26 181.275 153.368 188.231 151.456C197.207 148.985 204.821 142.968 208.346 135.6C211.871 128.278 213.422 116.292 212.952 99.9695C212.435 81.8745 211.307 75.2521 207.453 67.1839C204.21 60.4216 198.899 56.1311 190.346 53.3795C184.048 51.3275 163.086 47.923 152.605 47.2234L147.859 46.897L146.825 50.1149Z" fill="url(#paint0_linear_230_7037)"/>
<defs>
<linearGradient id="paint0_linear_230_7037" x1="219.277" y1="74.8464" x2="60.885" y2="206.218" gradientUnits="userSpaceOnUse">
<stop stop-color="#898888"/>
<stop offset="1" stop-color="#B4B4B5"/>
</linearGradient>
</defs>
</svg>
