<svg width="20" height="29" viewBox="0 0 20 29" fill="none" xmlns="http://www.w3.org/2000/svg">
<path d="M10.25 13.8C9.32648 13.8 8.44078 13.4313 7.78775 12.7749C7.13473 12.1185 6.76786 11.2283 6.76786 10.3C6.76786 9.37174 7.13473 8.4815 7.78775 7.82513C8.44078 7.16875 9.32648 6.8 10.25 6.8C11.1735 6.8 12.0592 7.16875 12.7122 7.82513C13.3653 8.4815 13.7321 9.37174 13.7321 10.3C13.7321 10.7596 13.6421 11.2148 13.4671 11.6394C13.2921 12.064 13.0356 12.4499 12.7122 12.7749C12.3889 13.0999 12.005 13.3577 11.5826 13.5336C11.1601 13.7095 10.7073 13.8 10.25 13.8ZM10.25 0.5C7.66414 0.5 5.18419 1.5325 3.35571 3.37035C1.52723 5.20821 0.5 7.70088 0.5 10.3C0.5 17.65 10.25 28.5 10.25 28.5C10.25 28.5 20 17.65 20 10.3C20 7.70088 18.9728 5.20821 17.1443 3.37035C15.3158 1.5325 12.8359 0.5 10.25 0.5Z" fill="#D44A2A"/>
</svg>
